<?xml version="1.0" encoding="UTF-8"?>
<svg width="30px" height="30px" viewBox="0 0 30 30" version="1.1" xmlns="http://www.w3.org/2000/svg" xmlns:xlink="http://www.w3.org/1999/xlink">
    <!-- Generator: sketchtool 61 (101010) - https://sketch.com -->
    <title>E31AEC3B-3E2E-4D96-B445-B0B55748BC60</title>
    <desc>Created with sketchtool.</desc>
    <g id="Asset-Artboard-Page" stroke="none" stroke-width="1" fill="none" fill-rule="evenodd">
        <g id="Icon-/-Fontawesome-Regular" fill="#FAB72D">
            <path d="M17.1940823,19.5003129 L17.1926938,20.6810047 C17.1924268,20.7668542 17.1670057,20.8510749 17.1194213,20.9227186 L17.1194213,20.9227186 L16.449234,21.9300557 C16.3682977,22.0520074 16.2315793,22.1253067 16.0850075,22.1253067 L16.0850075,22.1253067 L13.9289687,22.1253067 C13.7826639,22.1253067 13.6459455,22.0520074 13.5647422,21.9300557 L13.5647422,21.9300557 L12.8945549,20.9227186 C12.8467035,20.8510749 12.8212557,20.767148 12.8212557,20.6810047 L12.8212557,20.6810047 L12.8201609,19.5003129 L17.1940823,19.5003129 Z M15.0071216,8.12560707 C17.6649331,8.12560707 19.8196101,10.2802841 19.8196101,12.9380956 C19.8196101,14.1513381 19.3698012,15.2581966 18.628798,16.1042219 C18.173782,16.6231912 17.4601225,17.7117582 17.1954442,18.6242202 L17.1954442,18.6242202 L17.1954442,18.625582 L15.8829473,18.625582 C15.8830541,18.5123354 15.9102643,18.3371649 15.9436428,18.2318223 C16.0989464,17.7399297 16.5722805,16.458595 17.641675,15.2387836 C18.1997638,14.6019481 18.5071133,13.784922 18.5071133,12.9380956 C18.5071133,11.0081762 16.937041,9.43810394 15.0071216,9.43810394 C13.1400873,9.43810394 11.5030177,10.9245163 11.5084918,12.9380956 C11.5109485,13.7854828 11.8111949,14.5981296 12.3728353,15.2387836 C13.4487986,16.4665258 13.9199431,17.7505841 14.07279,18.2375634 C14.111883,18.3622656 14.1312959,18.491881 14.1315896,18.6222976 L14.1315896,18.6222976 L14.1315896,18.625582 L12.8190928,18.625582 C12.5543877,17.7117582 11.8407282,16.6231912 11.3857122,16.1039549 C10.644442,15.2581966 10.1946331,14.1513381 10.1946331,12.9380956 C10.1946331,10.3943051 12.210402,8.12560707 15.0071216,8.12560707 Z M15.0071216,10.3131019 C15.2488355,10.3131019 15.4446206,10.5088869 15.4446206,10.7506008 C15.4446206,10.9923147 15.2488355,11.1880998 15.0071216,11.1880998 C14.0424289,11.1880998 13.2571258,11.9728689 13.2571258,12.9380956 C13.2571258,13.1798095 13.0613407,13.3755946 12.8196268,13.3755946 C12.5779129,13.3755946 12.3821279,13.1798095 12.3821279,12.9380956 C12.3821279,11.4905092 13.5595352,10.3131019 15.0071216,10.3131019 Z" id="Combined-Shape"></path>
        </g>
    </g>
</svg>