<?xml version="1.0" encoding="UTF-8"?>
<svg width="30px" height="30px" viewBox="0 0 30 30" version="1.1" xmlns="http://www.w3.org/2000/svg" xmlns:xlink="http://www.w3.org/1999/xlink">
    <!-- Generator: sketchtool 61 (101010) - https://sketch.com -->
    <title>891A1EFF-38F1-4DF5-B494-5766BC048159</title>
    <desc>Created with sketchtool.</desc>
    <g id="Asset-Artboard-Page" stroke="none" stroke-width="1" fill="none" fill-rule="evenodd">
        <g id="Icon-/-Fontawesome-Regular" fill="#69CC8B">
            <path d="M15.0071164,8.34435655 C18.7522933,8.34435655 21.7883502,11.3804135 21.7883502,15.1255904 C21.7883502,18.8707673 18.7522933,21.9068242 15.0071164,21.9068242 C11.2619395,21.9068242 8.22588256,18.8707673 8.22588256,15.1255904 C8.22588256,11.3804135 11.2619395,8.34435655 15.0071164,8.34435655 Z M15.0071164,9.65685342 C11.9843041,9.65685342 9.53837943,12.103232 9.53837943,15.1255904 C9.53837943,18.1484027 11.984758,20.5943273 15.0071164,20.5943273 C18.0299287,20.5943273 20.4758534,18.1479487 20.4758534,15.1255904 C20.4758534,12.1027781 18.0294748,9.65685342 15.0071164,9.65685342 Z M17.7605774,12.5957922 C17.8892316,12.4681527 18.0969795,12.4689805 18.2245922,12.5976347 L18.2245922,12.5976347 L18.8408132,13.2188223 C18.9684259,13.3474765 18.9675981,13.5552511 18.8389707,13.6828906 L18.8389707,13.6828906 L14.1197551,18.3642416 C13.9911009,18.491881 13.783353,18.4910265 13.6557402,18.3623724 L13.6557402,18.3623724 L11.1734463,15.859998 C11.0458069,15.7313171 11.0466614,15.5235425 11.1753155,15.3959297 L11.1753155,15.3959297 L11.7965299,14.7797088 C11.925184,14.652096 12.132932,14.6529505 12.2605447,14.7816047 L12.2605447,14.7816047 L13.8954781,16.4298094 Z" id="Combined-Shape"></path>
        </g>
    </g>
</svg>