<?xml version="1.0" encoding="UTF-8"?>
<svg width="30px" height="30px" viewBox="0 0 30 30" version="1.1" xmlns="http://www.w3.org/2000/svg" xmlns:xlink="http://www.w3.org/1999/xlink">
    <!-- Generator: sketchtool 61 (101010) - https://sketch.com -->
    <title>4E5F3D3C-7BF1-4753-B319-EED823A0127A</title>
    <desc>Created with sketchtool.</desc>
    <g id="Asset-Artboard-Page" stroke="none" stroke-width="1" fill="none" fill-rule="evenodd">
        <g id="Icon-/-Fontawesome-Solid" fill="#FFFFFF">
            <path d="M17.7362796,10.4393291 C18.0723346,10.1035411 18.6167249,10.1035411 18.9525128,10.4393291 L18.9525128,10.4393291 L19.5606428,11.047459 C19.8964307,11.383514 19.8964307,11.927931 19.5606428,12.2636922 L19.5606428,12.2636922 L16.8243517,14.9999833 L19.5606428,17.7362744 C19.8964307,18.0723293 19.8964307,18.6167197 19.5606428,18.9525076 L19.5606428,18.9525076 L18.9525128,19.5606376 C18.6167249,19.8964255 18.0720408,19.8964255 17.7362796,19.5606376 L17.7362796,19.5606376 L14.9999885,16.8243465 L12.2636974,19.5606376 C11.9279362,19.8964255 11.3832522,19.8964255 11.0474642,19.5606376 L11.0474642,19.5606376 L10.4393343,18.9525076 C10.1035463,18.6164527 10.1035463,18.0720356 10.4393343,17.7362744 L10.4393343,17.7362744 L13.1756254,14.9999833 L10.4393343,12.2636922 C10.1035463,11.9276373 10.1035463,11.3832469 10.4393343,11.047459 L10.4393343,11.047459 L11.0474642,10.4393291 C11.3835192,10.1035411 11.9279362,10.1035411 12.2636974,10.4393291 L12.2636974,10.4393291 L14.9999885,13.1756201 Z" id="Icon-Color"></path>
        </g>
    </g>
</svg>